<?xml version="1.0" standalone="no"?>
<!DOCTYPE svg PUBLIC "-//W3C//DTD SVG 20010904//EN"
 "http://www.w3.org/TR/2001/REC-SVG-20010904/DTD/svg10.dtd">
<svg version="1.0" xmlns="http://www.w3.org/2000/svg"
 width="512.000000pt" height="512.000000pt" viewBox="0 0 512.000000 512.000000"
 preserveAspectRatio="xMidYMid meet">

<g transform="translate(0.000000,512.000000) scale(0.100000,-0.100000)"
fill="#000000" stroke="none">
<path d="M2340 5110 c-312 -29 -642 -121 -905 -252 -118 -59 -285 -160 -285
-172 0 -15 497 -1547 504 -1553 8 -8 -11 -22 1149 822 l1087 790 -38 23 c-69
43 -236 125 -347 169 -187 75 -415 134 -630 163 -111 15 -420 21 -535 10z"/>
<path d="M3485 4081 c-363 -264 -660 -483 -659 -487 1 -5 500 -371 1110 -814
727 -529 1111 -802 1116 -795 4 7 16 63 27 126 157 885 -158 1779 -838 2375
-46 41 -86 74 -90 74 -3 0 -303 -216 -666 -479z"/>
<path d="M778 4393 c-212 -207 -386 -448 -513 -708 -93 -188 -137 -310 -185
-500 -103 -410 -106 -810 -9 -1222 l22 -93 824 0 c452 0 823 3 823 8 1 21
-846 2612 -854 2612 -5 0 -54 -44 -108 -97z"/>
<path d="M3546 2398 c-42 -128 -233 -717 -425 -1308 -192 -591 -348 -1077
-345 -1079 2 -3 48 1 102 8 398 51 786 198 1120 423 271 183 553 476 734 764
62 99 186 345 212 419 l14 42 -659 479 c-362 264 -663 480 -668 482 -6 2 -44
-102 -85 -230z"/>
<path d="M209 1546 c22 -56 134 -268 185 -349 138 -219 359 -467 561 -630 400
-323 959 -542 1429 -559 l69 -3 253 780 c140 429 254 781 254 783 0 1 -621 2
-1380 2 l-1380 0 9 -24z"/>
</g>
</svg>
